# xmcd
#
# Track frame offsets: 
#        150
#        12552
#        22663
#        34449
#        46508
#        58568
#        70346
#        82788
#        95196
#        112315
#
# Disc length: 1669 seconds
#
# Revision: 0
# Processed by: cddbd v1.5.2PL0 Copyright (c) Steve Scherf et al.
# Submitted via: ExactAudioCopy v1.3
#
DISCID=7d06830a
DTITLE=Johnny Cash - Country
DYEAR=2012
DGENRE=Country
TTITLE0=I Walk The Line
TTITLE1=Get Rhythm
TTITLE2=I Still Miss Someone
TTITLE3=I'm So Lonesome I Could Cry
TTITLE4=Wabash Cannonball
TTITLE5=Ring Of Fire
TTITLE6=Jackson
TTITLE7=Folsom Prison Blues
TTITLE8=A Boy Named Sue
TTITLE9=Man In Black
EXTD=
EXTT0=
EXTT1=
EXTT2=
EXTT3=
EXTT4=
EXTT5=
EXTT6=
EXTT7=
EXTT8=
EXTT9=
PLAYORDER=
